<svg xmlns="http://www.w3.org/2000/svg" width="243.75" viewBox="0 0 243.75 75" height="75" version="1.0"><g fill="#3B82F6"><g><g><path d="M 3.703125 0 L 3.703125 -32.03125 L 10.109375 -32.03125 L 11.484375 -28.890625 L 11.8125 -28.890625 C 12.476562 -29.722656 13.582031 -30.585938 15.125 -31.484375 C 16.675781 -32.390625 18.476562 -32.84375 20.53125 -32.84375 C 23.082031 -32.84375 25.332031 -32.265625 27.28125 -31.109375 C 29.226562 -29.960938 30.742188 -28.332031 31.828125 -26.21875 C 32.921875 -24.101562 33.46875 -21.664062 33.46875 -18.90625 L 33.46875 0 L 24.9375 0 L 24.9375 -18.140625 C 24.9375 -20.023438 24.328125 -21.628906 23.109375 -22.953125 C 21.890625 -24.273438 20.382812 -24.9375 18.59375 -24.9375 C 16.75 -24.9375 15.226562 -24.285156 14.03125 -22.984375 C 12.84375 -21.679688 12.25 -20.066406 12.25 -18.140625 L 12.25 0 Z M 3.703125 0" transform="translate(20.66 61.001)"/></g></g></g><g fill="#3B82F6"><g><g><path d="M 23.734375 -32.03125 L 32.53125 -32.03125 L 19.71875 0.9375 C 18.207031 4.832031 16.59375 7.585938 14.875 9.203125 C 13.164062 10.816406 11.140625 11.625 8.796875 11.625 C 7.410156 11.625 6.066406 11.390625 4.765625 10.921875 L 4.765625 3.140625 C 5.359375 3.429688 6.132812 3.578125 7.09375 3.578125 C 8.4375 3.578125 9.515625 3.296875 10.328125 2.734375 C 11.140625 2.171875 11.800781 1.175781 12.3125 -0.25 L 12.5 -0.875 L 0 -32.03125 L 9.234375 -32.03125 L 16.703125 -11.171875 Z M 23.734375 -32.03125" transform="translate(54.063 61.001)"/></g></g></g><g fill="#3B82F6"><g><g><path d="M 16.265625 -32.84375 C 20.410156 -32.84375 23.675781 -31.597656 26.0625 -29.109375 C 28.445312 -26.617188 29.640625 -23.300781 29.640625 -19.15625 L 29.640625 0 L 23.234375 0 L 21.859375 -3.140625 L 21.546875 -3.140625 C 19.023438 -0.503906 15.988281 0.8125 12.4375 0.8125 C 10.425781 0.8125 8.59375 0.394531 6.9375 -0.4375 C 5.28125 -1.28125 3.976562 -2.429688 3.03125 -3.890625 C 2.09375 -5.359375 1.625 -6.972656 1.625 -8.734375 C 1.625 -10.910156 2.273438 -12.800781 3.578125 -14.40625 C 4.878906 -16.019531 6.691406 -17.253906 9.015625 -18.109375 C 11.335938 -18.972656 14.003906 -19.40625 17.015625 -19.40625 L 21.09375 -19.40625 L 21.09375 -20.03125 C 21.09375 -21.664062 20.65625 -22.941406 19.78125 -23.859375 C 18.90625 -24.785156 17.710938 -25.25 16.203125 -25.25 C 14.898438 -25.25 13.863281 -24.898438 13.09375 -24.203125 C 12.320312 -23.515625 11.851562 -22.773438 11.6875 -21.984375 L 3.140625 -21.984375 C 3.304688 -23.867188 3.898438 -25.632812 4.921875 -27.28125 C 5.953125 -28.9375 7.429688 -30.273438 9.359375 -31.296875 C 11.285156 -32.328125 13.585938 -32.84375 16.265625 -32.84375 Z M 14.4375 -6.15625 C 16.40625 -6.15625 18.003906 -6.738281 19.234375 -7.90625 C 20.472656 -9.082031 21.09375 -10.46875 21.09375 -12.0625 L 21.09375 -13.6875 L 16.765625 -13.6875 C 14.460938 -13.6875 12.785156 -13.316406 11.734375 -12.578125 C 10.691406 -11.847656 10.171875 -10.835938 10.171875 -9.546875 C 10.171875 -8.535156 10.535156 -7.71875 11.265625 -7.09375 C 12.003906 -6.46875 13.0625 -6.15625 14.4375 -6.15625 Z M 14.4375 -6.15625" transform="translate(83.134 61.001)"/></g></g></g><g fill="#3B82F6"><g><g><path d="M 16.265625 -32.84375 C 20.410156 -32.84375 23.675781 -31.597656 26.0625 -29.109375 C 28.445312 -26.617188 29.640625 -23.300781 29.640625 -19.15625 L 29.640625 0 L 23.234375 0 L 21.859375 -3.140625 L 21.546875 -3.140625 C 19.023438 -0.503906 15.988281 0.8125 12.4375 0.8125 C 10.425781 0.8125 8.59375 0.394531 6.9375 -0.4375 C 5.28125 -1.28125 3.976562 -2.429688 3.03125 -3.890625 C 2.09375 -5.359375 1.625 -6.972656 1.625 -8.734375 C 1.625 -10.910156 2.273438 -12.800781 3.578125 -14.40625 C 4.878906 -16.019531 6.691406 -17.253906 9.015625 -18.109375 C 11.335938 -18.972656 14.003906 -19.40625 17.015625 -19.40625 L 21.09375 -19.40625 L 21.09375 -20.03125 C 21.09375 -21.664062 20.65625 -22.941406 19.78125 -23.859375 C 18.90625 -24.785156 17.710938 -25.25 16.203125 -25.25 C 14.898438 -25.25 13.863281 -24.898438 13.09375 -24.203125 C 12.320312 -23.515625 11.851562 -22.773438 11.6875 -21.984375 L 3.140625 -21.984375 C 3.304688 -23.867188 3.898438 -25.632812 4.921875 -27.28125 C 5.953125 -28.9375 7.429688 -30.273438 9.359375 -31.296875 C 11.285156 -32.328125 13.585938 -32.84375 16.265625 -32.84375 Z M 14.4375 -6.15625 C 16.40625 -6.15625 18.003906 -6.738281 19.234375 -7.90625 C 20.472656 -9.082031 21.09375 -10.46875 21.09375 -12.0625 L 21.09375 -13.6875 L 16.765625 -13.6875 C 14.460938 -13.6875 12.785156 -13.316406 11.734375 -12.578125 C 10.691406 -11.847656 10.171875 -10.835938 10.171875 -9.546875 C 10.171875 -8.535156 10.535156 -7.71875 11.265625 -7.09375 C 12.003906 -6.46875 13.0625 -6.15625 14.4375 -6.15625 Z M 14.4375 -6.15625" transform="translate(112.707 61.001)"/></g></g></g><g fill="#3B82F6"><g><g><path d="M 23.734375 -13.1875 L 2.640625 -13.1875 L 2.640625 -20.71875 L 23.734375 -20.71875 Z M 23.734375 -13.1875" transform="translate(142.28 61.001)"/></g></g></g><g fill="#3B82F6"><g><g><path d="M 21.796875 0.8125 C 18.316406 0.8125 15.226562 0.0390625 12.53125 -1.5 C 9.832031 -3.050781 7.75 -5.175781 6.28125 -7.875 C 4.8125 -10.582031 4.078125 -13.585938 4.078125 -16.890625 L 4.078125 -43.953125 L 13.0625 -43.953125 L 13.0625 -16.890625 C 13.0625 -14.253906 13.832031 -12.085938 15.375 -10.390625 C 16.925781 -8.691406 19.066406 -7.84375 21.796875 -7.84375 C 24.515625 -7.84375 26.644531 -8.691406 28.1875 -10.390625 C 29.738281 -12.085938 30.515625 -14.253906 30.515625 -16.890625 L 30.515625 -43.953125 L 39.5 -43.953125 L 39.5 -16.890625 C 39.5 -13.585938 38.765625 -10.582031 37.296875 -7.875 C 35.835938 -5.175781 33.753906 -3.050781 31.046875 -1.5 C 28.347656 0.0390625 25.265625 0.8125 21.796875 0.8125 Z M 21.796875 0.8125" transform="translate(165.198 61.001)"/></g></g></g><g fill="#3B82F6"><g><g><path d="M 13.375 0 L 4.390625 0 L 4.390625 -43.953125 L 13.375 -43.953125 Z M 13.375 0" transform="translate(205.32 61.001)"/></g></g></g></svg>