<?xml version="1.0" standalone="no"?>
<!DOCTYPE svg PUBLIC "-//W3C//DTD SVG 20010904//EN"
 "http://www.w3.org/TR/2001/REC-SVG-20010904/DTD/svg10.dtd">
<svg version="1.0" xmlns="http://www.w3.org/2000/svg"
 width="192.000000pt" height="192.000000pt" viewBox="0 0 192.000000 192.000000"
 preserveAspectRatio="xMidYMid meet">

<g transform="translate(0.000000,192.000000) scale(0.100000,-0.100000)"
fill="#000000" stroke="none">
<path d="M432 1053 l3 -318 30 -54 c61 -111 169 -157 349 -149 93 4 112 8 170
37 75 37 118 83 146 159 18 48 20 78 20 347 l0 295 -84 0 -85 0 -1 -286 c-1
-317 -2 -328 -63 -381 -42 -37 -85 -47 -163 -41 -87 7 -137 55 -154 147 -5 29
-10 168 -10 307 l0 254 -81 0 -80 0 3 -317z"/>
<path d="M1320 955 l0 -415 85 0 85 0 0 415 0 415 -85 0 -85 0 0 -415z"/>
</g>
</svg>
